<?xml version="1.0" encoding="utf-8"?>
<!-- Generator: Adobe Illustrator 27.9.6, SVG Export Plug-In . SVG Version: 9.03 Build 54986)  -->
<svg version="1.1" id="a" xmlns="http://www.w3.org/2000/svg" xmlns:xlink="http://www.w3.org/1999/xlink" x="0px" y="0px"
	 viewBox="0 0 4664.2 1047.2" style="enable-background:new 0 0 4664.2 1047.2;" xml:space="preserve">
<style type="text/css">
	.st0{fill:url(#SVGID_1_);}
	.st1{fill:url(#SVGID_00000093146845140586289850000007610241858156110501_);}
	.st2{fill:url(#SVGID_00000089571324899944916200000008236500499484522910_);}
	.st3{fill:url(#SVGID_00000096775755738164899010000008482422425662172051_);}
	.st4{fill:url(#SVGID_00000006704260383603350300000006636735907958782643_);}
	.st5{fill:url(#SVGID_00000141421451448828955560000000547821477656549303_);}
	.st6{font-family:'Blackside-Bold';}
	.st7{font-size:251.6591px;}
</style>
<linearGradient id="SVGID_1_" gradientUnits="userSpaceOnUse" x1="338.8026" y1="959.6401" x2="363.5126" y2="45.3301" gradientTransform="matrix(1 0 0 -1 0 968)">
	<stop  offset="0" style="stop-color:#F15A29"/>
	<stop  offset="3.000000e-02" style="stop-color:#F15C29"/>
	<stop  offset="1" style="stop-color:#FBB040"/>
</linearGradient>
<path class="st0" d="M598.8,719.2c53.2-58.9,85.6-137,85.6-222.7c0-117.5-61-220.8-153.1-279.9c22.3,138.1-43.5,172.4-68.7,166.1
	c-25.8-6.4-35-41.5-25.8-65.8c4.8-12.4,23.7-73.5,11.4-138.6C436.5,116,396.1,50,287.3,19.2c29.6,75.3,12.7,114.1-15.7,154.6
	c-29.9,42.7-72.6,87.4-87.3,178.7c-48.6-34.6-41-85.2-28.8-124.3C73.1,288.9,19.6,386.4,19.6,496.5c0,183.3,148.4,332,331.6,332.4
	v98.7c0,15.2,17.4,23.8,29.5,14.7L580.3,738C586.7,732,592.8,725.8,598.8,719.2L598.8,719.2L598.8,719.2L598.8,719.2z M246.8,775.1
	c-7.4,5.5-17.9,0.3-17.9-8.9v-81.7c-38.5-30.4-62.8-74.9-62.8-124.4c0-91.6,82.9-165.8,185.1-165.8s185.1,74.2,185.1,165.8
	s-82.9,165.8-185.1,165.8c-12,0-23.8-1-35.2-3L246.8,775.1L246.8,775.1z"/>
<path d="M1085,754.3h-12.5c-6.2,0-9.3,0.4-12.5,0.4c-3.1,0.4-6.2,0.4-12.5,0.4s-9.3,0-12.5,0.4H1023c-6.6,0-12.1-6.2-12.1-12.9V729
	c0-3.1-0.4-7-0.4-13.6s-0.4-10.5-0.4-13.6c-0.4-3.1-0.8-7-0.8-13.6s0.8-10.5,1.2-13.6c1.2-3.1,1.6-7,1.6-13.6s-0.4-10.5-0.4-13.6
	c0-3.5-0.4-7-0.4-13.6c0-7.4-0.4-10.5-0.8-13.6c0-3.5-0.8-6.6-0.8-14c0-6.6,0.4-10.1,0.4-13.6v-13.6c0-6.6,0.4-10.5,0.8-13.6
	s1.2-7,1.2-13.6s-5.8-9.7-12.1-6.6c-5.8,3.1-9,5.5-11.7,7c-2.7,1.6-5.8,3.5-11.7,7c-5.1,3.1-8.2,5.1-10.9,7c-3.1,2-5.8,3.9-11.7,7.4
	c-5.8,3.1-9,4.7-12.1,5.8c-3.1,1.6-6.2,3.1-12.1,6.2c-6.2,3.5-10.5,12.1-10.5,18.7s0,10.5-0.4,13.6c0,3.5-0.4,7.4-0.4,14
	s0.4,10.5,0.4,14c0.4,3.1,0.4,7,0.4,13.6c0,7.4,0.4,10.9,0.4,14v14c0,6.6,0,10.5,0.4,13.6v41.7c0,6.6-6.2,13.6-12.9,13.6
	c-5.8,0-9-0.4-12.1-0.8c-3.1,0-5.8-0.4-12.1-0.4s-9.3,0-12.1-0.4h-12.5c-5.8,0-9,0.4-12.1,0.4c-3.1,0.4-6.2,0.8-12.1,0.8
	c-6.6,0-12.5-6.6-12.5-13.2v-14.4c0.4-3.5,0.4-7.4,0.4-14.8s-0.4-11.3-0.4-14.4c0-3.5-0.4-7.4-0.4-14.8s0.4-11.3,0.4-14.4
	c0-3.5,0.4-7.4,0.4-14.8s-0.4-11.3-0.8-14.8c0-3.1-0.4-7-0.4-14.4s0-11.3,0.4-14.8v-29.2c0-3.5-0.4-7-0.4-14.4s0.4-11.3,0.4-14.8
	c0.4-3.5,0.4-7,0.4-14.4v-29.6c0-7.4,0.4-10.9,0.8-14.4c0-3.5,0.4-7.4,0.4-14.8s0-11.3-0.4-14.4V450c0-7.4,0-11.3,0.4-14.4
	c0-3.5,0.4-7.4,0.4-14.8s-0.8-11.3-1.2-14.8c-0.4-3.1-1.2-7-1.2-14.4v-14.8c0.4-3.5,0.4-7,0.4-14.4s0.4-11.3,0.8-14.8
	s0.8-7,0.8-14.4c0-7.8,0-11.3,0.4-14.8v-14.8c0-7.4-0.8-10.9-1.2-14.4c-0.4-3.5-1.2-7.4-1.2-14.8v-58.4c0-6.6,6.6-13.2,13.2-13.2
	c5.8,0,9,0.4,12.1,0.8s5.8,0.8,12.1,0.8s9.3-0.4,12.1-0.8c3.1-0.4,6.2-0.8,12.5-0.8h24.2c6.6,0,13.2,6.6,13.2,13.2s-0.4,10.5-0.8,14
	c-0.4,3.1-1.2,6.6-1.2,14s0.4,10.9,0.4,14c0,3.5,0.4,7,0.4,14.4v28.1c0,7.4,0.4,10.9,0.4,14c0,3.5,0.4,7.4,0.4,14
	c0,7.4,0.4,10.9,0.4,14.4c0,3.1,0.4,6.6,0.4,14c0,6.6-0.4,10.9-0.8,14c0,3.5-0.4,7.4-0.4,14c0,7.4,0.4,10.9,0.4,14.4
	c0.4,3.1,0.8,6.6,0.8,14c0,6.6-0.4,10.9-0.4,14c0,3.5-0.4,7.4-0.4,14v28.5c0,6.6,3.1,8.6,9.3,5.1c5.8-3.5,9-4.7,12.1-5.9
	c3.1-1.6,6.2-2.7,12.1-5.9c5.8-3.5,8.6-5.9,11.7-7.4c2.7-2,5.5-4.3,11.3-7.4c5.8-3.5,8.6-5.5,11.7-7c2.7-2,5.5-3.9,11.3-7
	c5.8-3.5,9.7-10.9,9.7-17.1c0-7.4,0.8-11.3,1.2-14.4c0.4-3.5,0.8-7,0.8-14.4s-0.4-10.9-0.8-14.4s-0.8-7-0.8-14.4s0-10.9,0.4-14.4
	c0-3.5,0.4-7,0.4-14.4s0.4-10.9,0.8-14.4c0-3.1,0.8-7,0.8-14.4c0-6.6-0.8-10.9-1.2-14.4c-0.4-3.1-1.2-7-1.2-14.4
	c0-6.6,0.8-10.9,1.2-14c0.4-3.5,0.8-7.8,0.8-14.4c0-7.4,0.4-11.3,0.4-14.4v-14.4c0-6.6,4.3-12.9,10.9-12.9c5.9,0,9.4,0,12.1,0.4
	c3.1,0,6.2,0.4,12.5,0.4h12.5c3.1,0.4,6.2,0.4,12.5,0.4s9.3-0.4,12.5-0.8c2.7-0.4,6.2-0.8,12.5-0.8s10.5,6.6,10.5,13.2
	c0,7.4,0.8,10.9,1.2,14.4s1.2,7.4,1.2,14.8s0,11.3-0.4,14.4v14.8c0,7.4,0,11.3,0.4,14.4c0,3.5,0.4,7.4,0.4,14.8s-0.4,11.3-0.4,14.8
	c-0.4,3.1-0.4,7-0.4,14.4s-0.4,11.3-0.4,14.8c0,3.1-0.4,7-0.4,14.4s0.8,11.3,0.8,14.8c0.4,3.5,0.8,7,0.8,14.4s-0.4,11.3-0.8,14.8
	c0,3.5-0.4,7-0.4,14.4c0,7.8,0.4,11.3,0.4,14.8c0.4,3.5,0.4,7.4,0.4,14.8s-0.4,10.9-0.8,14.4c0,3.5-0.4,7.4-0.4,14.8
	s-0.4,11.3-0.4,14.4c0,3.5-0.4,7.4-0.4,14.8s0.4,11.3,0.4,14.4c0.4,3.5,0.4,7.4,0.4,14.8s-0.4,11.3-0.4,14.8
	c-0.4,3.1-0.8,7-0.8,14.4s0.8,11.3,1.2,14.8s0.8,7,0.8,14.4v29.6c0,7.4-0.4,10.9-0.8,14.4s-0.8,7.4-0.8,14.8s0.4,11.3,0.8,14.4
	c0.4,3.5,0.8,7.4,0.8,14.8s0,11.3-0.4,14.8v14.4c0,7.4,0,11.3-0.4,14.8v14.4c0,6.6-5.5,11.7-11.7,11.7L1085,754.3L1085,754.3z"/>
<path d="M1290,756.3c-6.6,0-12.9-0.8-18.7-2.7c-2.7-0.4-5.8-1.2-8.6-1.6c-1.9-0.4-3.9-0.4-5.8-0.8c-7.4-0.8-14.8-2.3-21.4-4.3
	c-9-2.7-17.5-6.2-25.3-10.5c-8.2-5.1-15.6-10.5-22.2-16.8c-5.1-5.1-9-10.9-12.5-17.5c-1.2-2-1.9-3.5-3.1-5.5
	c-1.2-1.2-1.9-2.7-2.7-3.9c-4.3-6.2-8.2-12.9-10.9-19.9c-2.7-8.6-4.7-17.5-5.8-27.3c-0.8-8.6-1.2-17.5-1.2-27.3
	c0-7.4-0.4-10.5-0.4-14v-13.6c0-7.4,0.4-10.9,0.4-14c0-3.5,0.4-6.6,0.4-14c0-6.6-0.4-10.5-0.4-13.6c0-3.5-0.4-7.4-0.4-14
	c0-7.4,0-10.5-0.4-14v-27.7c-0.4-3.5-0.4-6.6-0.4-14v-27.7c0-7.4-0.4-10.5-0.4-14c0-3.1-0.4-7-0.4-13.6c0-7.4,0.4-10.9,0.8-14
	c0-3.5,0.4-6.6,0.4-14c0-6.6,0.4-10.5,0.4-14c0-3.1,0.4-7,0.4-13.6c0-7.4-0.4-10.9-0.8-14s-0.8-6.6-0.8-14c0-9.7,0.8-18.7,2.7-27.3
	c1.6-9.7,3.9-18.7,7-26.9c3.1-9,7-17.1,11.3-24.9c5.1-7.8,11.3-14.8,17.9-21c0-0.3,0.1-0.4,0.4-0.4c6.2-6.6,13.2-12.1,20.7-17.1
	c7.8-4.7,16.4-8.6,25.3-11.3c8.6-2.7,17.5-5.1,26.9-6.6c9-0.8,17.9-1.2,27.7-1.2s18.3,0.8,27.3,1.9c8.6,1.6,16.8,3.9,24.6,6.6
	c0.4,0.4,1.2,0.4,1.9,0.8c9,2.7,17.5,6.6,25.3,10.9c7.8,5.1,14.8,10.5,21,17.1c1.6,1.6,3.1,3.1,5.1,4.7c5.1,4.3,9.7,9.4,14,15.2
	c4.7,7.8,8.6,16.4,11.7,25.3c1.9,6.2,3.1,12.9,3.9,19.9l1.2,7c1.2,8.6,1.6,17.5,1.6,27.3c0,7.4,0.8,10.5,1.2,14
	c0.4,3.1,1.2,6.6,1.2,14v83.4c0,6.6-0.4,10.5-0.8,13.6c-0.4,3.5-0.8,6.6-0.8,14c0,6.6,0.4,10.5,0.8,14c0.4,3.1,0.8,7,0.8,13.6v14
	c0,3.1-0.4,6.6-0.4,14c0,6.6,0.4,10.5,0.4,13.6v14c0,6.6-0.4,10.5-0.8,14c-0.4,3.1-1.2,7-1.2,13.6c0,7.4,0.4,10.9,0.4,14
	s0.4,6.6,0.4,14c0,9.7-0.8,18.7-1.9,27.3c-1.2,9.7-3.5,18.7-6.2,26.9c-2.7,9-6.6,17.5-11.3,25.3c-4.7,7.4-10.1,13.6-16.8,19.5
	c-0.4,0.4-1.2,0.8-1.6,1.2l-1.2,1.2c-5.8,6.6-12.5,12.1-19.9,16.8c-7.8,4.3-16.4,8.2-25.7,10.9c-8.2,2.7-17.2,5.1-26.9,6.2
	C1308.3,755.5,1299.3,756.3,1290,756.3L1290,756.3z M1290,665.1c12.9,0,23-3.9,30-11.3c7.8-7,11.7-17.2,11.7-30.4
	c0-7.4-0.4-10.9-0.8-14.4c0-3.5-0.4-7-0.4-14.4v-14.4c0.4-3.1,0.4-7,0.4-14.4v-14.4c-0.4-3.1-0.4-7-0.4-14.4s0.4-10.9,0.4-14.4
	c0-3.1,0.4-7,0.4-14.4v-28.8c0-6.6,0.4-10.9,0.8-14.4c0-3.1,0.4-7,0.4-14.4c0-6.6-0.4-10.9-0.4-14c0-3.5-0.4-7.8-0.4-14.4
	c0-7.4,0.4-11.3,0.4-14.4c0.4-3.5,0.8-7.8,0.8-14.4c0-7.4-0.8-11.3-1.2-14.4c-0.4-3.5-1.2-7.8-1.2-14.4v-14.4
	c0-3.5,0.4-7.4,0.4-14.8c0-12.9-2.3-23.8-9.7-31.2c-7.4-7.8-17.9-11.7-31.2-11.7s-22.6,5.5-30,12.9s-12.1,17.1-12.1,30v14.4
	c0.4,3.5,0.4,7.8,0.4,14.4c0,7.4-0.4,11.3-0.4,14.4c-0.4,3.5-0.4,7-0.4,14.4s0,11.3,0.4,14.4c0,3.5,0.4,7,0.4,14.4V436
	c0.4,3.5,0.4,7,0.4,14.4v14.4c0,3.5,0.4,7,0.4,14.4v28.8c0,7.4,0,10.9,0.4,14.4v14.4c0,7.4,0,10.9-0.4,14.4s-0.4,7-0.4,14.4
	s-0.4,10.9-0.4,14.4s-0.4,7-0.4,14.4s0.4,10.9,0.8,14.4s0.8,7,0.8,14.4c0,13.2,3.5,23.4,10.1,30.4
	C1266.6,661.2,1276.7,665.1,1290,665.1L1290,665.1z"/>
<path d="M1539,293.8c-8.2,0-12.9,0-17.2,0.4c-4.3,0-8.2,0.4-17.2,0.4c-8.2,0-12.9,0-17.2,0.4c-3.5,0-8.6,0.4-16.8,0.4
	c-6.6,0-12.5-7-12.5-13.6c0-8.2-0.4-12.1-0.4-16.4c-0.4-4.3-0.8-8.2-0.8-16.4s0.4-12.9,0.4-16.4c0-4.3,0.4-8.6,0.4-16.8
	c0-6.2,6.2-12.5,12.9-12.5s10.9-0.4,14-0.4c3.5,0,7-0.4,14.4-0.4s10.9,0.8,14.4,1.2c3.1,0.4,7,1.2,14.4,1.2c6.6,0,10.9-0.4,14-0.8
	c3.5-0.4,7-0.8,14.4-0.8s10.9,0,14.4-0.4c3.1,0,7-0.4,14.4-0.4h28.4c7.4,0,10.9,0.4,14.4,0.8c3.1,0.4,7,1.2,14.4,1.2
	c6.6,0,10.9-0.4,14-0.8c3.5-0.4,7-0.8,14.4-0.8s10.9,0,14.4,0.4c3.5,0,7,0.4,14.4,0.4s10.9,0.4,14.4,0.8c3.1,0,7.4,0.8,14,0.8
	s12.9,4.3,12.9,10.5c0,8.2-0.4,12.5-0.8,16.8c-0.4,3.5-1.2,8.2-1.2,16.4v32.7c0,6.6-4.3,12.9-10.9,12.9c-9,0-13.2,0-17.5-0.4
	c-3.5,0-8.6-0.4-16.4-0.4c-6.2,0-10.9,0-14-0.4h-20.3c-6.6,0-12.1,5.9-12.1,12.5c0,7.4-0.4,11.3-0.4,14.8c-0.4,3.1-0.4,7-0.4,14.4
	s0,11.3,0.4,14.4c0,3.5,0.4,7.4,0.4,14.8s0,10.9,0.4,14.4v29.2c0,3.1,0.4,7,0.4,14.4v29.2c0,7.4,0,10.9,0.4,14.4v14.4
	c0,7.4,0,11.3-0.4,14.8c0,3.5-0.4,7-0.4,14.4s-0.4,11.3-0.4,14.8c0,3.1-0.4,7-0.4,14.4s0.4,11.3,0.8,14.4c0.4,3.5,0.8,7.4,0.8,14.8
	s-0.4,10.9-0.4,14.4s-0.4,7-0.4,14.4s0,11.3-0.4,14.8v14.4c0,7.4,0,11.3,0.4,14.8c0,3.1,0.4,7,0.4,14.4s-0.4,11.3-0.4,14.4
	c-0.4,3.5-0.4,7.4-0.4,14.8s0.4,10.9,0.4,14.4c0.4,3.5,0.8,7.4,0.8,14.8s0,10.9-0.4,14.4v14.4c0,6.6-6.2,13.2-12.9,13.2
	c-6.2,0-9-0.4-12.1-0.4s-6.2-0.4-12.1-0.4h-24.6c-5.8,0-9-0.4-12.1-0.8c-2.7,0-5.8-0.4-12.1-0.4c-6.6,0-11.7-4.7-11.7-11.3
	c0-7.4,0-10.9,0.4-14.4c0-3.5,0.4-7,0.4-14.4s-0.8-11.3-1.2-14.8c-0.4-3.1-1.2-7-1.2-14.4s0.4-11.3,0.4-14.4v-14.8
	c0-7.4,0.4-10.9,0.8-14.4s0.8-7,0.8-14.4s0.4-11.3,0.4-14.8v-14.4c0-7.4-0.8-11.3-1.2-14.8c-0.4-3.1-1.2-7-1.2-14.4v-87.3
	c0-7.4,0.4-11.3,0.8-14.4c0.4-3.5,0.8-7.4,0.8-14.8s-0.4-10.9-0.8-14.4s-0.8-7.4-0.8-14.8v-14.4c0-3.5,0.4-7,0.4-14.4
	s-0.4-11.3-0.4-14.8v-14.4c0-7.4,0.4-11.3,0.8-14.8c0.4-3.1,1.2-7,1.2-14.4s-0.4-11.3-0.4-14.4c0-3.5-0.4-7.4-0.4-14.8
	C1551.1,299.2,1545.6,293.7,1539,293.8L1539,293.8z"/>
<path d="M1862,293.8c-8.2,0-12.9,0-17.2,0.4c-4.3,0-8.2,0.4-17.2,0.4c-8.2,0-12.9,0-17.2,0.4c-3.5,0-8.6,0.4-16.8,0.4
	c-6.6,0-12.5-7-12.5-13.6c0-8.2-0.4-12.1-0.4-16.4c-0.4-4.3-0.8-8.2-0.8-16.4s0.4-12.9,0.4-16.4c0-4.3,0.4-8.6,0.4-16.8
	c0-6.2,6.2-12.5,12.9-12.5s10.9-0.4,14-0.4c3.5,0,7-0.4,14.4-0.4s10.9,0.8,14.4,1.2c3.1,0.4,7,1.2,14.4,1.2c6.6,0,10.9-0.4,14-0.8
	c3.5-0.4,7-0.8,14.4-0.8s10.9,0,14.4-0.4c3.1,0,7-0.4,14.4-0.4h28.4c7.4,0,10.9,0.4,14.4,0.8c3.1,0.4,7,1.2,14.4,1.2
	c6.6,0,10.9-0.4,14-0.8c3.5-0.4,7-0.8,14.4-0.8s10.9,0,14.4,0.4c3.5,0,7,0.4,14.4,0.4s10.9,0.4,14.4,0.8c3.1,0,7.4,0.8,14,0.8
	s12.9,4.3,12.9,10.5c0,8.2-0.4,12.5-0.8,16.8c-0.4,3.5-1.2,8.2-1.2,16.4v32.7c0,6.6-4.3,12.9-10.9,12.9c-9,0-13.2,0-17.5-0.4
	c-3.5,0-8.6-0.4-16.4-0.4c-6.2,0-10.9,0-14-0.4h-20.3c-6.6,0-12.1,5.9-12.1,12.5c0,7.4-0.4,11.3-0.4,14.8c-0.4,3.1-0.4,7-0.4,14.4
	s0,11.3,0.4,14.4c0,3.5,0.4,7.4,0.4,14.8s0,10.9,0.4,14.4v29.2c0,3.1,0.4,7,0.4,14.4v29.2c0,7.4,0,10.9,0.4,14.4v14.4
	c0,7.4,0,11.3-0.4,14.8c0,3.5-0.4,7-0.4,14.4s-0.4,11.3-0.4,14.8c0,3.1-0.4,7-0.4,14.4s0.4,11.3,0.8,14.4c0.4,3.5,0.8,7.4,0.8,14.8
	s-0.4,10.9-0.4,14.4s-0.4,7-0.4,14.4s0,11.3-0.4,14.8v14.4c0,7.4,0,11.3,0.4,14.8c0,3.1,0.4,7,0.4,14.4s-0.4,11.3-0.4,14.4
	c-0.4,3.5-0.4,7.4-0.4,14.8s0.4,10.9,0.4,14.4c0.4,3.5,0.8,7.4,0.8,14.8s0,10.9-0.4,14.4v14.4c0,6.6-6.2,13.2-12.9,13.2
	c-6.2,0-9-0.4-12.1-0.4s-6.2-0.4-12.1-0.4h-24.6c-5.8,0-9-0.4-12.1-0.8c-2.7,0-5.8-0.4-12.1-0.4c-6.6,0-11.7-4.7-11.7-11.3
	c0-7.4,0-10.9,0.4-14.4c0-3.5,0.4-7,0.4-14.4s-0.8-11.3-1.2-14.8c-0.4-3.1-1.2-7-1.2-14.4s0.4-11.3,0.4-14.4v-14.8
	c0-7.4,0.4-10.9,0.8-14.4s0.8-7,0.8-14.4s0.4-11.3,0.4-14.8v-14.4c0-7.4-0.8-11.3-1.2-14.8c-0.4-3.1-1.2-7-1.2-14.4v-87.3
	c0-7.4,0.4-11.3,0.8-14.4c0.4-3.5,0.8-7.4,0.8-14.8s-0.4-10.9-0.8-14.4s-0.8-7.4-0.8-14.8v-14.4c0-3.5,0.4-7,0.4-14.4
	s-0.4-11.3-0.4-14.8v-14.4c0-7.4,0.4-11.3,0.8-14.8c0.4-3.1,1.2-7,1.2-14.4s-0.4-11.3-0.4-14.4c0-3.5-0.4-7.4-0.4-14.8
	C1874.1,299.2,1868.7,293.7,1862,293.8L1862,293.8z"/>
<path d="M2081,464.8c0.4-3.5,0.8-7.4,1.9-14.8c1.2-7.4,1.6-10.9,2.7-14.4c0.4-3.5,1.6-7.4,2.7-14.8c1.2-6.6,1.2-11.3,1.2-14.8
	s-0.4-7.4,1.2-14.8c1.2-6.6,1.2-10.9,2.3-14.4c0.4-3.5,0.8-7.4,2.3-14.8c1.2-7.4,2.3-10.9,2.7-14.4c1.2-3.5,1.9-7.8,3.1-14.4
	c1.2-7.4,1.6-11.3,2.7-14.8c0.4-3.5,1.2-7.8,2.3-14.4c1.2-7.4,1.2-11.7,1.2-14.8c-0.4-3.5-0.4-7.8,0.8-15.2
	c1.2-6.6,1.9-10.9,2.3-14.4s0.8-7.4,2.3-14.8c1.2-7.4,1.6-11.3,1.9-14.8c1.2-3.1,1.2-7,2.3-14.4c1.6-6.6,8.6-12.9,15.2-12.9
	c7.8,0,12.1,0.4,15.6,0.8s7.8,0.8,15.6,0.8s12.1-0.4,15.6-0.8s7.8-0.8,15.6-0.8h62.4c6.6,0,12.1,5.9,13.2,13.2
	c1.2,6.6,1.6,10.9,2.7,14.4c0.4,3.5,1.2,7.8,2.3,14.4c1.2,7.4,1.9,11.3,2.3,14.8c0.4,3.5,1.2,7.4,2.3,14.8
	c1.2,6.6,1.9,10.9,2.3,14.4c1.2,3.5,1.6,7.4,2.7,14.8c1.2,6.6,1.6,10.9,2.7,14.4c0.4,3.5,1.6,7.8,2.7,14.4
	c1.2,7.4,1.2,11.3,1.6,14.8c0,3.5,0.4,7.4,1.6,14.8c1.2,7.4,2.3,11.3,2.7,14.4c1.2,3.5,1.6,7.4,3.1,14.8c1.2,7.4,1.6,11.3,1.6,14.4
	c0.4,3.5,0.8,7.4,1.9,14.8c1.6,7.8,1.9,11.7,2.3,15.2c0.4,3.5,1.2,7.4,2.3,14c1.2,7.4,1.9,11.3,2.3,14.8c1.2,3.5,1.6,7,2.7,14.4
	s1.2,11.3,1.2,14.8s0,7.4,1.2,14.8s2.3,11.3,2.7,14.8c1.2,3.1,1.9,7,3.1,14.4c1.2,7.4,1.9,11.3,2.3,14.4c1.2,3.5,1.6,7.4,2.7,14.8
	c1.2,7.4,1.9,11.3,2.3,14.4c0.4,3.5,1.2,7.4,2.3,14.8c1.2,7.4,1.2,11.3,1.2,14.8s0,7.4,1.2,14.8c1.6,7.4,1.9,11.3,3.1,14.4
	c1.2,3.5,1.9,7.4,3.1,14.8c1.2,6.6,1.6,10.9,1.9,14.4s0.8,7.4,1.9,14.8c1.2,7.4,1.2,11.3,1.6,14.8c0,3.5,0,7.4,1.2,14.8
	c1.2,7.4,2.3,11.3,3.5,14.4c1.2,3.5,1.9,7.8,3.1,14.4c1.2,6.6-4.7,11.3-10.9,11.3s-9.4-0.4-12.5-0.4h-12.5c-5.8,0-9.4,0-12.1,1.2
	c-3.1,0.4-6.2,1.2-12.5,1.2s-9.4-0.4-12.5-0.8c-2.7,0-5.8-0.4-12.1-0.4c-6.6,0-12.1-5.1-13.6-11.7c-1.2-7.8-1.9-12.1-3.1-15.6
	c-1.2-3.5-1.9-7.8-3.1-15.2c-1.2-7.8-1.2-12.5-1.2-16s0-8.2-1.2-15.6c-1.2-7.8-2.3-11.7-3.5-15.2c-1.6-3.5-2.3-7.8-3.9-15.6
	c-1.2-7.8-1.6-12.1-1.6-15.6c-0.4-3.5-0.4-8.2-1.9-16c-1.2-6.2-6.6-9-12.5-5.8c-5.9,3.5-9,5.1-12.1,6.6c-2.7,1.2-5.9,3.1-11.7,6.2
	c-5.9,3.5-9,5.5-11.7,7.4c-2.7,1.6-5.5,3.9-11.3,7c-5.8,3.1-9,5.1-11.7,7c-2.7,1.6-5.8,3.5-11.7,7c-5.8,3.1-10.5,10.9-11.7,17.5
	c-1.6,9-2.3,13.6-2.7,17.9c-0.4,4.3-1.2,9-2.7,17.9c-1.2,9-1.9,13.6-2.3,17.9c-0.4,4.7-1.2,9-2.3,17.9c-1.6,6.6-8.6,12.1-15.2,12.1
	c-8.2,0-12.5,0-16.8-0.4h-16.8c-8.2,0-12.5,0.4-16.8,0.4c-3.5,0.4-8.2,0.8-16.4,0.8c-6.6,0-11.3-6.2-10.9-12.9
	c1.2-7.4,1.6-11.3,2.7-14.8c0.4-3.5,1.2-7.8,2.3-14.4c1.2-7.4,1.6-11.3,1.9-14.8c0.4-3.5,0.8-7.4,1.9-14.8s1.9-11.3,2.3-14.4
	c1.2-3.5,1.6-7.4,2.7-14.8c1.2-6.6,1.6-11.3,1.6-14.4c0.4-3.5,0.4-8.2,1.6-14.8c1.2-7.4,1.6-11.3,2.7-14.8c0.4-3.5,1.2-7.8,2.3-14.4
	c1.2-7.4,1.9-11.3,2.3-14.8c0-3.5,0.8-7.4,1.9-14.8c1.2-6.6,1.9-10.9,2.3-14.4c1.2-3.5,1.6-7.8,2.7-14.4c1.2-7.4,1.9-11.3,2.3-14.8
	s1.2-7.4,2.3-14.8c1.2-6.6,1.6-10.9,2.7-14.4c0.4-3.5,1.6-7.8,2.7-14.4c1.2-7.4,1.6-11.3,1.9-14.8L2081,464.8z M2168.3,541.2
	c4.7-2.7,7.8-4.3,9.7-5.5c2.7-1.2,5.5-2.3,10.1-5.5c4.7-2.7,6.6-4.3,9.4-5.8c1.9-2,4.3-3.5,9.4-6.2c5.8-3.5,9.7-10.5,8.6-17.1
	c-1.2-7.4-1.6-11.3-1.9-14.8s-1.2-7.4-2.3-14.8s-1.9-11.7-2.3-14.8c-1.2-3.5-1.6-7.4-2.7-14.8c-1.2-7.4-1.9-11.7-1.9-15.2
	c-0.4-3.5-0.8-7.4-2.3-14.8c-1.2-7.4-1.6-11.3-2.7-14.4c-1.2-3.5-1.6-7.8-2.7-15.2c-1.2-7.4-1.6-11.3-1.6-14.8
	c-0.4-3.5-0.4-7.8-1.9-15.2c-1.2-6.6-2.7-6.6-3.9,0c-1.2,7.8-2.3,11.7-2.7,15.2c-1.2,3.5-1.6,7.8-3.1,15.2
	c-1.2,7.8-1.6,11.3-1.9,15.6c0,3.5-0.8,7.8-1.9,15.2s-1.9,11.7-2.3,15.2c0,3.5-0.8,7.8-1.9,15.2c-1.6,7.8-1.9,11.7-2.3,15.2
	c-0.4,4.3-1.2,7.8-2.3,15.6c-1.2,7.4-1.9,11.7-2.3,15.2c-0.4,3.5-1.2,7.8-2.3,15.2c-1.2,7.8-1.9,11.7-2.3,15.2
	c0,4.3-0.8,7.8-1.9,15.6C2160.1,542.4,2162.4,544.3,2168.3,541.2L2168.3,541.2z"/>
<path d="M2478.5,755.1c-5.9,0-9,0-12.1-0.4h-12.1c-6.2,0-9.4,0.4-12.1,0.4c-3.1,0.4-6.2,0.8-12.5,0.8c-5.8,0-9,0-12.1-0.4
	c-2.7,0-5.8-0.4-12.1-0.4c-6.6,0-12.1-5.8-12.1-12.5c0-7.4,0-10.9-0.4-14.4c0-3.5-0.4-7.4-0.4-14.8s0.4-11.3,0.4-14.4
	c0.4-3.5,0.4-7.4,0.4-14.8s-0.4-11.3-0.4-14.4c-0.4-3.5-0.8-7.4-0.8-14.8s0-11.3,0.4-14.8v-58.5c0.4-3.5,0.4-7,0.4-14.4v-14.8
	c0-3.5,0.4-7,0.4-14.4c0-7.8,0-11.3,0.4-14.8c0-3.5,0.4-7.4,0.4-14.8s0-10.9-0.4-14.4v-14.8c0-7.4,0-11.3,0.4-14.4
	c0-3.5,0.4-7.4,0.4-14.8s-0.8-11.3-1.2-14.4c-0.4-3.5-1.2-7.4-1.2-14.8s0.4-11.3,0.4-14.8v-14.4c0-7.4,0.4-11.3,0.8-14.8
	c0.4-3.5,0.8-7,0.8-14.4s0.4-11.3,0.4-14.8v-14.4c0-7.8-0.8-11.3-1.2-14.8s-1.2-7.4-1.2-14.8v-87.7c0-6.6,6.6-11.7,13.2-11.7
	c6.2,0,9.4-0.4,12.1-0.8c3.1-0.4,6.2-0.8,12.1-0.8h48.7c6.6,0,11.7,6.6,11.7,13.2v13.6c0.4,3.1,0.4,7,0.4,13.6v27.3
	c0,6.6,0.4,10.1,0.4,13.6c0,3.1,0.4,7,0.4,13.6s0.4,10.5,0.4,13.6c0.4,3.1,0.4,7,0.4,13.6s-0.4,10.5-0.8,13.6c0,3.1-0.4,7-0.4,13.6
	s0.4,10.5,0.4,13.6c0.4,3.1,0.8,7,0.8,13.6s0,10.5-0.4,13.6c0,3.5-0.4,7-0.4,13.6s1.6,7,4.3,1.2c3.1-6.6,5.1-10.9,6.6-14
	c1.6-3.5,3.5-7.4,6.6-14c3.5-6.6,5.5-10.1,8.2-13.2c1.9-3.1,4.3-6.6,7.8-13.2c3.1-6.6,4.7-10.9,6.2-14.4c1.6-3.1,3.1-7.4,6.2-14
	c3.5-6.6,5.5-10.5,7-14c1.2-3.1,3.1-7.4,6.6-14c3.1-6.6,5.1-10.5,6.6-14c1.6-3.1,3.5-7,7-13.6c3.5-6.6,5.8-10.5,7.8-13.2
	c1.9-3.1,4.7-7,7.8-13.6c3.5-6.6,5.1-10.9,6.2-14c1.6-3.5,3.1-7.8,6.2-14.4c3.5-6.2,12.1-10.5,18.7-10.5c6.2,0,9.4,0.4,12.5,0.8
	c2.7,0.4,6.2,0.8,12.5,0.8s9.4-0.8,12.5-1.2c3.1-0.4,6.2-1.2,12.5-1.2s9.4,0.8,12.5,1.2c3.1,0.4,6.2,0.8,12.5,0.8
	c6.6,0,8.6,3.1,5.5,9.4c-3.1,5.9-4.7,9.4-5.1,12.5c-1.2,3.5-2.3,7-5.5,12.9c-2.7,6.2-4.7,9.4-6.6,12.1c-1.6,2.7-3.5,5.9-6.2,12.1
	c-3.1,5.9-5.1,9.4-6.6,12.1c-1.6,3.1-3.1,6.2-6.2,12.1c-3.1,6.2-4.3,9.7-5.5,12.9s-2.3,6.6-5.5,12.5c-3.1,6.2-5.1,9-7,11.7
	c-1.9,2.7-4.3,5.9-7.4,11.7c-3.1,6.2-4.7,9.7-5.1,12.9c-1.2,3.1-2.3,6.6-5.1,12.9c-3.1,5.9-5.1,9-6.6,12.1
	c-1.6,2.7-3.1,6.2-6.2,12.1c-3.1,6.2-4.3,9.4-5.8,12.5c-1.2,3.1-2.7,6.6-5.9,12.5c-2.7,6.2-4.7,9.4-6.6,12.1
	c-1.6,3.1-3.5,5.9-6.6,12.1c-2.7,6.2-3.9,15.6-1.2,21.8c1.9,6.6,3.9,9.7,5.9,12.9c1.6,3.1,3.5,6.2,5.5,12.9
	c2.7,6.2,3.5,9.7,4.7,13.2c0.4,3.1,1.6,7,4.3,13.2s4.3,9.7,5.5,12.9c1.6,3.1,3.1,6.2,5.9,12.9c1.9,6.2,3.1,9.7,4.3,13.2
	c1.2,3.1,1.6,7,4.3,13.2s3.5,9.7,4.7,12.9c1.6,3.5,2.3,7,5.1,13.2s3.9,9.7,5.5,12.9s2.7,6.6,5.5,12.9c2.7,6.6,3.9,10.1,4.3,13.2
	c1.2,3.1,1.9,7,4.7,13.2c2.7,6.6,4.3,9.7,5.8,12.9c1.9,2.7,3.5,6.2,6.2,12.5c2.7,6.2,3.9,10.1,5.1,13.2c1.2,3.1,2.3,6.6,5.1,12.9
	c2.7,6.2,3.1,10.1,4.3,13.2c1.2,3.5,1.6,7,4.3,13.6c2.7,6.2,4.3,9.7,5.9,12.5c1.6,3.1,3.1,6.6,5.8,12.9c1.9,6.2-1.6,11.7-8.2,11.7
	c-6.2,0-9.7-0.4-12.9-0.4h-12.9c-6.2,0-9.7-0.4-12.5-0.4h-38.6c-6.6,0-14-4.3-16.8-10.5c-1.9-6.2-3.5-9.7-4.7-12.9
	c-1.2-2.7-2.3-6.2-5.1-12.5c-1.9-6.2-3.1-9.7-4.3-12.9s-1.9-6.6-4.7-12.9c-1.9-6.2-3.5-9.3-4.7-12.5s-2.7-6.6-4.7-12.5
	c-2.7-6.2-3.9-9.7-5.5-12.5c-1.6-3.1-3.5-6.2-5.5-12.5c-2.7-6.2-3.1-9.7-3.5-13.2c-0.4-3.1-1.6-6.6-3.5-12.9
	c-2.7-6.2-3.5-9.3-5.1-12.1c-1.2-3.1-2.3-6.6-5.1-13.2c-2.7-6.6-3.9-10.1-5.1-13.2c-1.2-2.7-2.7-5.8-4.7-12.1
	c-2.7-6.2-7-6.2-10.1-0.4c-4.7,9.3-7.4,14.4-10.1,18.7s-5.5,9.3-10.1,18.7c-2.7,6.2-4.7,16.4-4.7,23c0,7.4,0.4,11.3,0.4,14.8v14.4
	c0,7.4,0.4,11.3,0.4,14.4v44c0,7.4,0.4,10.9,0.4,14.4s0.4,7,0.4,14.4C2492.1,749.2,2485.1,755.1,2478.5,755.1L2478.5,755.1z"/>
<path d="M2763,755.5c-3.1,0.4-7.4,0.8-14,0.8s-12.9-7-12.9-13.6v-29.2c0-7.4-0.4-11.3-0.4-14.4c0-3.5-0.4-7.4-0.4-14.8
	s0.8-11.3,1.2-14.4c0.4-3.5,1.2-7.4,1.2-14.8s-0.4-11.3-0.8-14.8c-0.4-3.1-0.8-7-0.8-14.4s0-11.3-0.4-14.8v-14.4
	c0-7.4-0.4-11.3-0.4-14.8v-14.4c0-7.4,0.8-11.3,1.2-14.8s0.8-7,0.8-14.4c0-7.8-0.4-11.3-0.8-14.8s-0.8-7.4-0.8-14.8
	s0.4-10.9,0.4-14.4s0.4-7.4,0.4-14.8s0.4-11.3,0.8-14.4c0.4-3.5,0.8-7.4,0.8-14.8s-0.8-11.3-1.2-14.4c-0.4-3.5-1.2-7.4-1.2-14.8
	s0.8-11.3,1.2-14.8c0.4-3.1,0.8-7,0.8-14.4s0.4-11.3,0.4-14.8v-14.4c0-7.4,0-11.3-1.2-14.8c-0.4-3.5-0.8-7-0.8-14.4
	c0-7.8,0-11.3,0.4-14.8c0-3.5,0.4-7.4,0.4-14.8V289c0.4-3.5,0.4-7.4,0.4-14.8s-0.4-11.3-0.8-14.4c-0.4-3.5-0.8-7.4-0.8-14.8
	s0.8-11.3,1.2-14.8s1.2-7,1.2-14.4c0-6.6,4.3-13.2,10.9-13.2s10.9,0.4,14,0.4h14.4c7.4,0,10.9,0,14.4-0.4c3.1,0,7.4-0.4,14-0.4
	c7.4,0,10.9,0.4,14.4,0.4c3.5,0.4,7,0.8,14.4,0.8h14c3.5,0,7,0.4,14.4,0.4s10.9-0.4,14.4-0.8c3.1-0.4,7.4-0.8,14-0.8
	c7.4,0,10.9,0.4,14.4,0.8c3.5,0,7,0.8,14.4,0.8c6.6,0,10.9-0.4,14-0.8c3.5,0,7-0.4,14.4-0.4s10.9,0.4,14.4,0.8c3.1,0,7,0.8,14.4,0.8
	c6.2,0,10.9,5.1,10.9,11.7c0,7.8,0.4,12.1,0.4,16.4c0.4,3.5,0.4,8.2,0.4,16.4s-0.4,12.9-0.4,16.4c-0.4,4.3-0.8,8.2-0.8,16.4
	c0,6.6-4.3,12.9-10.5,12.9h-26.5c-6.2,0-9.7-0.4-13.2-0.8c-3.1-0.4-6.6-1.2-12.9-1.2c-6.6,0-10.1,0.8-13.2,1.2
	c-3.1,0-6.6,0.8-13.2,0.8c-7.4,0-10.5-0.4-14-0.4h-12.1c-6.2-0.4-9.4-0.4-12.5-0.4s-6.6-0.4-14-0.4c-6.6,0-12.1,5.9-12.1,12.5
	c0,7.8-0.4,12.1-0.4,15.6c0,4.3-0.4,8.2-0.4,16s0.4,12.1,0.4,15.6s0.4,7.8,0.4,15.6s0,12.1,0.4,15.6v31.6c0.4,3.5,0.4,7.8,0.4,15.6
	c0,6.6,4.7,11.3,11.3,11.3s9.7-0.4,12.9-0.4h12.9c6.6,0,9.7,0,12.9,0.4c3.1,0,6.6,0.4,12.9,0.4c6.6,0,9.7,0.4,12.9,0.4
	s6.6,0.4,12.9,0.4c6.6,0,10.1-0.4,13.2-0.8s6.2-0.8,12.9-0.8c6.2,0,12.5,6.6,12.5,13.2c0,8.2-0.4,12.1-0.4,16.4s-0.4,8.2-0.4,16.4
	s0.4,12.9,0.4,16.4c0.4,4.3,0.4,8.6,0.4,16.8c0,6.2-6.2,11.7-12.5,11.7c-6.6,0-9.7,0.4-12.9,0.8s-6.6,0.4-12.9,0.4h-12.9
	c-3.1-0.4-6.6-0.4-13.2-0.4h-12.9c-3.1,0.4-6.2,0.4-12.9,0.4c-6.2,0-9.7-0.4-12.9-0.4s-6.2-0.4-12.9-0.4s-12.1,5.5-12.1,12.1
	s0,10.1-0.4,13.2c0,3.1-0.4,7-0.4,13.6s0,10.1,0.4,13.2v13.6c0,6.6,0,10.5-0.4,13.6c0,3.1-0.4,6.6-0.4,13.2s0.8,10.5,1.2,13.6
	s1.2,7,1.2,13.6s3.5,10.1,10.9,11.3c6.6,0,10.1,0.4,13.2,0.8s6.6,0.8,13.2,0.8c6.2,0,9.7,0,12.9,0.4h13.2c6.6,0,10.1-0.8,13.2-1.2
	s6.6-1.2,13.2-1.2h52.6c6.2,0,13.2,6.6,13.2,13.2c0,8.2-0.8,12.1-1.2,16.4c0,4.3-0.8,8.2-0.8,16.4s0.8,12.9,0.8,16.4
	c0.4,4.3,1.2,8.6,1.2,16.4c0,6.6-7,13.2-13.2,13.2h-28.8c-7.4,0-10.9-0.4-14-0.8c-3.5-0.4-7-0.8-14.4-0.8H2906
	c-3.1,0.4-7.4,0.4-14,0.4h-28.8c-7.4,0-10.9,0.4-14,0.4c-3.5,0-7,0.4-14.4,0.4s-10.9,0.4-14.4,0.4c-3.1,0.4-7.4,0.4-14,0.4
	c-7.4,0-11.3-0.4-14.4-0.8c-3.5,0-7-0.4-14.4-0.4S2766.5,755.5,2763,755.5L2763,755.5z"/>
<linearGradient id="SVGID_00000072251862732652843210000017178428005288695961_" gradientUnits="userSpaceOnUse" x1="3178.9956" y1="763.3216" x2="3188.2556" y2="213.5016" gradientTransform="matrix(1 0 0 -1 0 968)">
	<stop  offset="0" style="stop-color:#F15A29"/>
	<stop  offset="3.000000e-02" style="stop-color:#F15C29"/>
	<stop  offset="1" style="stop-color:#FBB040"/>
</linearGradient>
<path style="fill:url(#SVGID_00000072251862732652843210000017178428005288695961_);" d="M3073.9,464.8c0.4-3.5,0.8-7.4,1.9-14.8
	c1.2-7.4,1.6-10.9,2.7-14.4c0.4-3.5,1.6-7.4,2.7-14.8c1.2-6.6,1.2-11.3,1.2-14.8s-0.4-7.4,1.2-14.8c1.2-6.6,1.2-10.9,2.3-14.4
	c0.4-3.5,0.8-7.4,2.3-14.8c1.2-7.4,2.3-10.9,2.7-14.4c1.2-3.5,1.9-7.8,3.1-14.4c1.2-7.4,1.6-11.3,2.7-14.8c0.4-3.5,1.2-7.8,2.3-14.4
	c1.2-7.4,1.2-11.7,1.2-14.8c-0.4-3.5-0.4-7.8,0.8-15.2c1.2-6.6,1.9-10.9,2.3-14.4s0.8-7.4,2.3-14.8c1.2-7.4,1.6-11.3,1.9-14.8
	c1.2-3.1,1.2-7,2.3-14.4c1.6-6.6,8.6-12.9,15.2-12.9c7.8,0,12.1,0.4,15.6,0.8s7.8,0.8,15.6,0.8s12.1-0.4,15.6-0.8s7.8-0.8,15.6-0.8
	h62.4c6.6,0,12.1,5.9,13.2,13.2c1.2,6.6,1.6,10.9,2.7,14.4c0.4,3.5,1.2,7.8,2.3,14.4c1.2,7.4,1.9,11.3,2.3,14.8
	c0.4,3.5,1.2,7.4,2.3,14.8c1.2,6.6,1.9,10.9,2.3,14.4c1.2,3.5,1.6,7.4,2.7,14.8c1.2,6.6,1.6,10.9,2.7,14.4c0.4,3.5,1.6,7.8,2.7,14.4
	c1.2,7.4,1.2,11.3,1.6,14.8c0,3.5,0.4,7.4,1.6,14.8c1.2,7.4,2.3,11.3,2.7,14.4c1.2,3.5,1.6,7.4,3.1,14.8c1.2,7.4,1.6,11.3,1.6,14.4
	c0.4,3.5,0.8,7.4,1.9,14.8c1.6,7.8,1.9,11.7,2.3,15.2c0.4,3.5,1.2,7.4,2.3,14c1.2,7.4,1.9,11.3,2.3,14.8c1.2,3.5,1.6,7,2.7,14.4
	s1.2,11.3,1.2,14.8s0,7.4,1.2,14.8s2.3,11.3,2.7,14.8c1.2,3.1,1.9,7,3.1,14.4c1.2,7.4,1.9,11.3,2.3,14.4c1.2,3.5,1.6,7.4,2.7,14.8
	c1.2,7.4,1.9,11.3,2.3,14.4c0.4,3.5,1.2,7.4,2.3,14.8c1.2,7.4,1.2,11.3,1.2,14.8s0,7.4,1.2,14.8c1.6,7.4,1.9,11.3,3.1,14.4
	c1.2,3.5,1.9,7.4,3.1,14.8c1.2,6.6,1.6,10.9,1.9,14.4s0.8,7.4,1.9,14.8c1.2,7.4,1.2,11.3,1.6,14.8c0,3.5,0,7.4,1.2,14.8
	c1.2,7.4,2.3,11.3,3.5,14.4c1.2,3.5,1.9,7.8,3.1,14.4c1.2,6.6-4.7,11.3-10.9,11.3s-9.4-0.4-12.5-0.4h-12.5c-5.8,0-9.4,0-12.1,1.2
	c-3.1,0.4-6.2,1.2-12.5,1.2s-9.4-0.4-12.5-0.8c-2.7,0-5.8-0.4-12.1-0.4c-6.6,0-12.1-5.1-13.6-11.7c-1.2-7.8-1.9-12.1-3.1-15.6
	c-1.2-3.5-1.9-7.8-3.1-15.2c-1.2-7.8-1.2-12.5-1.2-16s0-8.2-1.2-15.6c-1.2-7.8-2.3-11.7-3.5-15.2c-1.6-3.5-2.3-7.8-3.9-15.6
	c-1.2-7.8-1.6-12.1-1.6-15.6c-0.4-3.5-0.4-8.2-1.9-16c-1.2-6.2-6.6-9-12.5-5.8c-5.9,3.5-9,5.1-12.1,6.6c-2.7,1.2-5.9,3.1-11.7,6.2
	c-5.9,3.5-9,5.5-11.7,7.4c-2.7,1.6-5.5,3.9-11.3,7c-5.8,3.1-9,5.1-11.7,7c-2.7,1.6-5.8,3.5-11.7,7c-5.8,3.1-10.5,10.9-11.7,17.5
	c-1.6,9-2.3,13.6-2.7,17.9c-0.4,4.3-1.2,9-2.7,17.9c-1.2,9-1.9,13.6-2.3,17.9c-0.4,4.7-1.2,9-2.3,17.9c-1.6,6.6-8.6,12.1-15.2,12.1
	c-8.2,0-12.5,0-16.8-0.4h-16.8c-8.2,0-12.5,0.4-16.8,0.4c-3.5,0.4-8.2,0.8-16.4,0.8c-6.6,0-11.3-6.2-10.9-12.9
	c1.2-7.4,1.6-11.3,2.7-14.8c0.4-3.5,1.2-7.8,2.3-14.4c1.2-7.4,1.6-11.3,1.9-14.8s0.8-7.4,1.9-14.8s1.9-11.3,2.3-14.4
	c1.2-3.5,1.6-7.4,2.7-14.8c1.2-6.6,1.6-11.3,1.6-14.4c0.4-3.5,0.4-8.2,1.6-14.8c1.2-7.4,1.6-11.3,2.7-14.8c0.4-3.5,1.2-7.8,2.3-14.4
	c1.2-7.4,1.9-11.3,2.3-14.8c0-3.5,0.8-7.4,1.9-14.8c1.2-6.6,1.9-10.9,2.3-14.4c1.2-3.5,1.6-7.8,2.7-14.4c1.2-7.4,1.9-11.3,2.3-14.8
	s1.2-7.4,2.3-14.8c1.2-6.6,1.6-10.9,2.7-14.4c0.4-3.5,1.6-7.8,2.7-14.4c1.2-7.4,1.6-11.3,1.9-14.8L3073.9,464.8z M3161.2,541.2
	c4.7-2.7,7.8-4.3,9.7-5.5c2.7-1.2,5.5-2.3,10.1-5.5c4.7-2.7,6.6-4.3,9.4-5.8c1.9-2,4.3-3.5,9.4-6.2c5.8-3.5,9.7-10.5,8.6-17.1
	c-1.2-7.4-1.6-11.3-1.9-14.8s-1.2-7.4-2.3-14.8s-1.9-11.7-2.3-14.8c-1.2-3.5-1.6-7.4-2.7-14.8c-1.2-7.4-1.9-11.7-1.9-15.2
	c-0.4-3.5-0.8-7.4-2.3-14.8c-1.2-7.4-1.6-11.3-2.7-14.4c-1.2-3.5-1.6-7.8-2.7-15.2c-1.2-7.4-1.6-11.3-1.6-14.8
	c-0.4-3.5-0.4-7.8-1.9-15.2c-1.2-6.6-2.7-6.6-3.9,0c-1.2,7.8-2.3,11.7-2.7,15.2c-1.2,3.5-1.6,7.8-3.1,15.2
	c-1.2,7.8-1.6,11.3-1.9,15.6c0,3.5-0.8,7.8-1.9,15.2c-1.2,7.4-1.9,11.7-2.3,15.2c0,3.5-0.8,7.8-1.9,15.2c-1.6,7.8-1.9,11.7-2.3,15.2
	c-0.4,4.3-1.2,7.8-2.3,15.6c-1.2,7.4-1.9,11.7-2.3,15.2c-0.4,3.5-1.2,7.8-2.3,15.2c-1.2,7.8-1.9,11.7-2.3,15.2
	c0,4.3-0.8,7.8-1.9,15.6C3153,542.4,3155.3,544.3,3161.2,541.2L3161.2,541.2z"/>
<linearGradient id="SVGID_00000103224864292213175070000007931993185061966242_" gradientUnits="userSpaceOnUse" x1="3517.6685" y1="769.03" x2="3526.9385" y2="219.21" gradientTransform="matrix(1 0 0 -1 0 968)">
	<stop  offset="0" style="stop-color:#F15A29"/>
	<stop  offset="3.000000e-02" style="stop-color:#F15C29"/>
	<stop  offset="1" style="stop-color:#FBB040"/>
</linearGradient>
<path style="fill:url(#SVGID_00000103224864292213175070000007931993185061966242_);" d="M3660.4,619.5c-0.4,3.5-1.2,7-1.2,13.6
	v13.6c-0.4,3.5-0.4,6.6-0.4,14c0,6.6,0.8,10.1,1.2,13.6c0.4,3.1,1.2,7,1.2,13.6s-0.4,10.5-0.4,13.6c-0.4,3.1-0.4,7-0.4,13.6
	s-0.4,10.5-0.4,13.6v13.6c0,6.6-5.1,13.2-11.7,13.2c-6.2,0-9.4-0.8-12.1-1.2c-3.1-0.4-6.2-1.2-12.5-1.2c-5.8,0-9,0.8-12.1,1.2
	c-2.7,0.4-5.8,1.2-12.1,1.2s-9.4-0.4-12.1-0.4h-12.5c-6.2,0-13.2-6.2-13.2-12.9c0-5.8,0-8.6,0.4-11.7c0.4-2.7,0.4-5.5,0.4-11.7
	c0-5.8,0.4-8.6,0.4-11.7c0-2.7,0.4-5.8,0.4-11.7c0-3.5-0.4-7.4-0.8-12.1s-0.8-8.6-0.8-12.1c0-8.2,0.4-12.9,0.4-17.2
	c0.4-3.5,0.8-8.6,0.8-16.8c0-9-0.4-12.9-0.4-17.2c-0.4-4.3-0.4-8.2-0.4-17.2v-5.5c0.8-7.8,0.8-17.5-0.4-28.8
	c-1.9-14.4-5.8-28.1-13.6-31.2c-7.4-2-18.3,3.9-24.6,8.2c-13.6,7-15.2,7.8-25.7,14.4c-1.2,0.8-2.7,1.6-3.9,2.3
	c-6.2,3.5-10.5,11.7-10.5,18.3s0,10.1-0.4,13.6c0,3.1-0.4,6.6-0.4,13.2s0.4,10.1,0.4,13.6c0.4,3.1,0.4,6.6,0.4,13.2
	s0.4,10.1,0.4,13.6V662c0,6.6,0.4,10.1,0.4,13.6v40.1c0,6.6,0.4,10.5,0.4,13.6s0.4,6.6,0.4,13.2s-7,12.5-13.6,12.5
	c-5.9,0-9,0-12.1-0.4h-12.1c-6.2,0-9.4,0.4-12.1,0.4c-3.1,0.4-6.2,0.8-12.5,0.8c-5.8,0-9,0-12.1-0.4c-2.7,0-5.8-0.4-12.1-0.4
	c-6.6,0-12.1-5.8-12.1-12.5c0-7.4,0-10.9-0.4-14.4c0-3.5-0.4-7.4-0.4-14.8s0.4-11.3,0.4-14.4c0-3.5,0.4-7.4,0.4-14.8
	s-0.4-11.3-0.8-14.4c0-3.5-0.4-7.4-0.4-14.8s0-11.3,0.4-14.8v-58.5c0.4-3.5,0.4-7,0.4-14.4v-14.8c0-3.5,0.4-7,0.4-14.4
	c0-7.8,0-11.3,0.4-14.8c0-3.5,0.4-7.4,0.4-14.8s0-10.9-0.4-14.4v-14.8c0-7.4,0-11.3,0.4-14.4c0-3.5,0.4-7.4,0.4-14.8
	s-0.8-11.3-1.2-14.4c-0.4-3.5-1.2-7.4-1.2-14.8s0-11.3,0.4-14.8v-14.4c0-7.4,0.4-11.3,0.8-14.8c0.4-3.5,0.8-7,0.8-14.4
	s0-11.3,0.4-14.8v-14.4c0-7.8-0.8-11.3-1.2-14.8s-1.2-7.4-1.2-14.8v-87.7c0-6.6,6.6-11.7,13.2-11.7s10.1-0.4,13.2-0.8
	s7-0.8,13.2-0.8h53.8c6.6,0,10.1,0.4,13.2,0.8s7,1.2,13.6,1.2c6.2,0,10.1-0.4,13.2-0.4s6.6-0.4,13.2-0.4c10.5,0,20.3,0.8,29.6,1.9
	c10.5,1.2,19.9,2.7,28.8,5.5c9.7,3.1,18.7,7.4,26.9,12.5c7.8,5.9,14.4,13.2,20.3,21.8c5.9,7.4,10.9,16,14.4,25.7
	c2.7,8.6,5.1,18.3,6.2,28.8c1.2,9,1.9,19.1,1.9,29.6c0,7.4,0,11.7,0.4,15.2V360c0,7.4-0.4,11.7-0.8,15.2c-0.4,3.5-1.2,7.4-1.2,15.2
	v7.4c0.4,7.4,0.4,15.2-0.8,22.6c-1.2,10.1-3.1,19.9-6.2,29.2c-3.5,9.7-7.8,18.7-13.6,26.9c-6.2,8.2-13.6,14.8-22.6,20.6
	c9.7,5.8,17.5,12.5,23.8,20.3c5.9,8.2,10.1,17.5,13.2,27.7c1.9,7.4,3.5,15.6,4.3,23.8c0,2,0,4.3,0.4,6.6c0.4,3.5,1.2,6.6,1.6,10.1
	c1.6,6.6,2.3,13.6,2.3,20.3S3660.8,616.4,3660.4,619.5L3660.4,619.5z M3562.2,390.8c0-4.3,0.4-9,0.4-17.9s-0.4-13.2-0.4-17.9
	c0-4.3-0.4-8.6-0.4-17.5c0-12.1-1.2-29.2-10.5-38.2c-6.2-4.3-13.6-4.7-21-4.7c-8.2,0-12.5-0.4-16.8-0.8c-4.3-0.4-8.6-0.8-17.9-0.8
	c-6.2,0-12.1,5.9-12.1,12.5s0,10.1-0.4,13.2c0,3.5-0.4,7-0.4,13.6c0,6.2,0.4,10.1,0.4,13.2c0.4,3.1,0.4,6.6,0.4,13.2
	s0.4,10.1,0.4,13.2v13.2c0,6.6,0.4,10.1,0.4,13.2v40.1c0,6.6,0.4,10.1,0.4,13.2s0.4,6.6,0.4,13.2s3.1,9,9,6.2l12.5-6.2
	c3.1-1.6,6.6-3.1,12.5-6.2c10.9-5.9,20.6-12.5,28.8-20.3c8.2-7.4,14.4-16.4,14.4-30L3562.2,390.8L3562.2,390.8z"/>
<linearGradient id="SVGID_00000078034791199886503160000017032786804433479318_" gradientUnits="userSpaceOnUse" x1="3822.5706" y1="774.1702" x2="3831.8406" y2="224.3502" gradientTransform="matrix(1 0 0 -1 0 968)">
	<stop  offset="0" style="stop-color:#F15A29"/>
	<stop  offset="3.000000e-02" style="stop-color:#F15C29"/>
	<stop  offset="1" style="stop-color:#FBB040"/>
</linearGradient>
<path style="fill:url(#SVGID_00000078034791199886503160000017032786804433479318_);" d="M3727.8,755.5c-3.1,0.4-7.4,0.8-14,0.8
	s-12.9-7-12.9-13.6v-29.2c0-7.4-0.4-11.3-0.4-14.4c0-3.5-0.4-7.4-0.4-14.8s0.8-11.3,1.2-14.4c0.4-3.5,1.2-7.4,1.2-14.8
	s-0.4-11.3-0.8-14.8c-0.4-3.1-0.8-7-0.8-14.4s0-11.3-0.4-14.8v-14.4c0-7.4-0.4-11.3-0.4-14.8v-14.4c0-7.4,0.8-11.3,1.2-14.8
	s0.8-7,0.8-14.4c0-7.8-0.4-11.3-0.8-14.8s-0.8-7.4-0.8-14.8s0.4-10.9,0.4-14.4s0.4-7.4,0.4-14.8s0.4-11.3,0.8-14.4
	c0.4-3.5,0.8-7.4,0.8-14.8s-0.8-11.3-1.2-14.4c-0.4-3.5-1.2-7.4-1.2-14.8s0.8-11.3,1.2-14.8c0.4-3.1,0.8-7,0.8-14.4
	s0.4-11.3,0.4-14.8v-14.4c0-7.4,0-11.3-1.2-14.8c-0.4-3.5-0.8-7-0.8-14.4c0-7.8,0-11.3,0.4-14.8c0-3.5,0.4-7.4,0.4-14.8V289
	c0.4-3.5,0.4-7.4,0.4-14.8s-0.4-11.3-0.8-14.4c-0.4-3.5-0.8-7.4-0.8-14.8s0.8-11.3,1.2-14.8s1.2-7,1.2-14.4
	c0-6.6,4.3-13.2,10.9-13.2s10.9,0.4,14,0.4h14.4c7.4,0,10.9,0,14.4-0.4c3.1,0,7.4-0.4,14-0.4c7.4,0,10.9,0.4,14.4,0.4
	c3.5,0.4,7,0.8,14.4,0.8h14c3.5,0,7,0.4,14.4,0.4s10.9-0.4,14.4-0.8c3.1-0.4,7.4-0.8,14-0.8c7.4,0,10.9,0.4,14.4,0.8
	c3.5,0,7,0.8,14.4,0.8c6.6,0,10.9-0.4,14-0.8c3.5,0,7-0.4,14.4-0.4s10.9,0.4,14.4,0.8c3.1,0,7,0.8,14.4,0.8
	c6.2,0,10.9,5.1,10.9,11.7c0,7.8,0.4,12.1,0.4,16.4c0.4,3.5,0.4,8.2,0.4,16.4s-0.4,12.9-0.4,16.4c-0.4,4.3-0.8,8.2-0.8,16.4
	c0,6.6-4.3,12.9-10.5,12.9h-26.5c-6.2,0-9.7-0.4-13.2-0.8c-3.1-0.4-6.6-1.2-12.9-1.2c-6.6,0-10.1,0.8-13.2,1.2
	c-3.1,0-6.6,0.8-13.2,0.8c-7.4,0-10.5-0.4-14-0.4h-12.1c-6.2-0.4-9.4-0.4-12.5-0.4s-6.6-0.4-14-0.4c-6.6,0-12.1,5.9-12.1,12.5
	c0,7.8-0.4,12.1-0.4,15.6c0,4.3-0.4,8.2-0.4,16s0.4,12.1,0.4,15.6s0.4,7.8,0.4,15.6s0,12.1,0.4,15.6v31.6c0.4,3.5,0.4,7.8,0.4,15.6
	c0,6.6,4.7,11.3,11.3,11.3s9.7-0.4,12.9-0.4h12.9c6.6,0,9.7,0,12.9,0.4c3.1,0,6.6,0.4,12.9,0.4c6.6,0,9.7,0.4,12.9,0.4
	s6.6,0.4,12.9,0.4c6.6,0,10.1-0.4,13.2-0.8s6.2-0.8,12.9-0.8c6.2,0,12.5,6.6,12.5,13.2c0,8.2-0.4,12.1-0.4,16.4s-0.4,8.2-0.4,16.4
	s0.4,12.9,0.4,16.4c0.4,4.3,0.4,8.6,0.4,16.8c0,6.2-6.2,11.7-12.5,11.7c-6.6,0-9.7,0.4-12.9,0.8s-6.6,0.4-12.9,0.4h-12.9
	c-3.1-0.4-6.6-0.4-13.2-0.4h-12.9c-3.1,0.4-6.2,0.4-12.9,0.4c-6.2,0-9.7-0.4-12.9-0.4s-6.2-0.4-12.9-0.4s-12.1,5.5-12.1,12.1
	s0,10.1-0.4,13.2c0,3.1-0.4,7-0.4,13.6s0,10.1,0.4,13.2v13.6c0,6.6,0,10.5-0.4,13.6c0,3.1-0.4,6.6-0.4,13.2s0.8,10.5,1.2,13.6
	s1.2,7,1.2,13.6s3.5,10.1,10.9,11.3c6.6,0,10.1,0.4,13.2,0.8s6.6,0.8,13.2,0.8c6.2,0,9.7,0,12.9,0.4h13.2c6.6,0,10.1-0.8,13.2-1.2
	s6.6-1.2,13.2-1.2h52.6c6.2,0,13.2,6.6,13.2,13.2c0,8.2-0.8,12.1-1.2,16.4c0,4.3-0.8,8.2-0.8,16.4s0.8,12.9,0.8,16.4
	c0.4,4.3,1.2,8.6,1.2,16.4c0,6.6-7,13.2-13.2,13.2h-28.8c-7.4,0-10.9-0.4-14-0.8c-3.5-0.4-7-0.8-14.4-0.8h-14.4
	c-3.1,0.4-7.4,0.4-14,0.4H3828c-7.4,0-10.9,0.4-14,0.4c-3.5,0-7,0.4-14.4,0.4s-10.9,0.4-14.4,0.4c-3.1,0.4-7.4,0.4-14,0.4
	c-7.4,0-11.3-0.4-14.4-0.8c-3.5,0-7-0.4-14.4-0.4S3731.3,755.5,3727.8,755.5L3727.8,755.5z"/>
<linearGradient id="SVGID_00000106116629461956278410000007340039884422708900_" gradientUnits="userSpaceOnUse" x1="4135.1621" y1="779.439" x2="4144.4321" y2="229.619" gradientTransform="matrix(1 0 0 -1 0 968)">
	<stop  offset="0" style="stop-color:#F15A29"/>
	<stop  offset="3.000000e-02" style="stop-color:#F15C29"/>
	<stop  offset="1" style="stop-color:#FBB040"/>
</linearGradient>
<path style="fill:url(#SVGID_00000106116629461956278410000007340039884422708900_);" d="M4285.5,288.7c-0.4,3.5-0.4,7.4-0.4,14.8
	s-0.4,11.3-0.4,14.8c0,3.1-0.4,7-0.4,14.4s0.8,11.3,0.8,14.8c0.4,3.1,0.8,7,0.8,14.4s-0.4,11.3-0.8,14.8c0,3.5-0.4,7-0.4,14.4
	s0.4,11.3,0.4,14.8c0.4,3.5,0.4,7,0.4,14.4c0,7.8-0.4,11.3-0.8,14.8c0,3.5-0.4,7.4-0.4,14.8s-0.4,10.9-0.4,14.4s-0.4,7.4-0.4,14.8
	s0.4,11.3,0.4,14.4c0.4,3.5,0.4,7.4,0.4,14.8c0,7.4-0.4,11.3-0.4,14.4c-0.4,3.5-0.8,7.4-0.8,14.8s0.8,11.3,1.2,14.8
	c0.4,3.1,0.8,7,0.8,14.4v29.2c0,7.4-0.4,11.3-0.8,14.8s-0.8,7-0.8,14.8s0.4,10.9,0.8,14.4c0.4,3.5,0.8,7.4,0.8,14.8s0,11.3-0.4,14.4
	v14.8c0,7.4,0,11.3-0.4,14.8v14.4c0,7.4,0,11.3-0.4,14.8v14.4c0,6.6-5.1,11.7-11.3,11.7s-9.4,0.4-12.5,0.4
	c-2.7,0.4-5.8,0.4-12.1,0.4s-9,0-12.1,0.4h-12.1c-6.2,0-9.4-0.4-12.5-0.4c-2.7,0-5.8-0.4-12.1-0.4c-6.6,0-13.6-5.1-15.6-11.3
	c-2-6.6-3.5-10.5-5.1-13.6s-3.1-7-5.1-13.6c-2-6.6-2.7-10.9-3.1-14.4c0-3.5-0.8-7-2.7-14.4c-2-6.6-3.5-10.5-4.7-13.6
	c-1.2-3.1-2.7-7-4.7-13.6c-2-6.6-3.5-10.5-5.1-13.6c-1.6-3.5-3.1-7-5.1-13.6c-2-7.4-3.5-10.9-3.9-14c-1.2-3.5-2.3-7.4-4.3-14
	c-2-6.6-3.1-10.9-3.5-14c-0.4-3.5-1.6-7-3.5-14.4c-2-6.6-3.1-10.5-4.7-13.6c-1.2-3.1-2-7-4.7-13.6c-2-6.6-3.1-10.5-4.3-14
	c-1.6-3.1-2.7-7-4.7-13.6c-2-6.6-3.5-10.5-4.7-13.6c-1.6-3.5-3.1-7.4-5.1-14c-2-6.6-3.1-10.9-4.3-14.4c-0.4-3.1-1.6-7-3.5-13.6
	c-1.9-6.2-2.7-10.1-3.9-13.2c-1.2-3.5-1.6-7.8-4.3-14.4c-2.7-6.2-3.9-6.2-3.9,0.4c0,7.8-0.4,11.7-0.4,15.2s-0.4,7.8-0.4,15.2
	c0,7.8,0.4,11.7,0.4,15.2s0.4,7.8,0.4,15.2c0,7.8,0,11.7,0.4,15.2v30.8c0.4,3.5,0.4,7.4,0.4,15.2v30.4c0,7.4,0.4,11.7,0.4,15.2
	s0.4,7.4,0.4,15.2s-0.4,11.7-0.8,15.2c0,3.5-0.4,7.4-0.4,15.2s-0.4,11.7-0.4,15.2s-0.4,7.4-0.4,15.2s0.4,11.7,0.8,15.2
	s0.8,7.8,0.8,15.2c0,7.8-0.4,11.7-0.4,15.2s-0.4,7.8-0.4,15.2c0,6.6-5.8,12.1-12.5,12.1c-7.8,0-12.1,0.4-16.4,0.4
	c-3.5,0-8.2,0.4-16,0.4c-8.2,0-12.9-0.4-16.4-0.4c-4.3,0-8.2-0.4-16.4-0.4c-6.6,0-13.2-5.5-13.2-12.1c0-7.4,0.4-10.9,0.4-14.4
	s0.4-7.4,0.4-14.8s0-11.3-0.4-14.4v-14.8c0-7.4,0-11.3,0.4-14.4c0-3.5,0.4-7.4,0.4-14.8v-29.2c0-7.4,0.4-11.3,0.4-14.8
	c0.4-3.1,0.8-7,0.8-14.4s-0.4-11.3-0.4-14.8s-0.4-7-0.4-14.4s0.4-11.3,0.4-14.8c0.4-3.5,0.4-7,0.4-14.4c0-7.8-0.4-11.3-0.8-14.8
	c-1.2-3.5-1.2-7.4-1.2-14.8v-29.2c0-7.4,0.8-11.3,0.8-14.4c0.4-3.5,1.2-7.4,1.2-14.8v-14.4c0-3.5,0.4-7.4,0.4-14.8
	s-0.8-11.3-1.2-14.8c-1.2-3.1-1.6-7-1.6-14.4v-88.1c0-7.4,0.8-10.9,0.8-14.4c0.4-3.5,0.8-7.4,0.8-14.8s-0.4-11.3-0.8-14.4
	c0-3.5-0.8-7.4-0.8-14.8s0-11.3,0.4-14.8v-14.4c0-6.6,6.2-13.2,12.9-13.2c7.8,0,11.7,0.4,15.2,0.8s7.8,1.2,15.2,1.2
	c7.8,0,11.7-0.4,15.2-0.4s7.8-0.4,15.2-0.4h30.4c6.6,0,14.4,4.7,16.4,11.3s3.5,10.9,4.7,14c1.2,3.5,2.7,7.4,4.7,14
	c2,7.4,3.1,11.3,3.5,14.8c1.2,3.1,2,7,3.9,14.4c2,6.6,3.5,10.9,4.7,14c1.6,3.1,3.1,7.4,5.1,14c2,7.4,3.5,10.9,3.9,14.4
	c1.2,3.5,2.3,7,4.3,14.4c2,7.4,3.1,11.3,4.3,14.4c1.2,3.5,2.3,7.4,4.3,14c2,7.4,3.1,10.9,4.3,14.4c1.6,3.1,2.7,7.4,4.7,14
	c2,7.4,3.1,11.3,3.5,14.8c0.4,3.1,1.2,7.8,3.1,14.4c2,6.6,3.5,10.9,5.1,14c1.6,3.5,3.1,7.4,5.1,14c2,7.4,3.1,10.9,4.7,14.4
	c1.2,3.1,2.3,7.4,4.3,14c0.8,2.7,1.2,4.3,1.2,4.7v-4.7c0-7.4,0.4-10.9,0.8-14.4c0.4-3.1,1.2-6.6,1.2-14s-0.4-10.9-0.8-14.4
	c-0.4-3.1-0.8-6.6-0.8-14s0-10.9,0.4-14.4c0-3.1,0.4-6.6,0.4-14s0.4-10.9,0.8-14.4c0-3.1,0.8-6.6,0.8-14s-0.8-10.9-1.2-14.4
	c-0.4-3.1-1.2-6.6-1.2-14s0.8-10.9,1.2-14.4c0.4-3.1,0.8-6.6,0.8-14s0.4-10.9,0.4-14.4v-14c0-7.4-0.8-10.9-1.2-14.4
	c-0.4-3.1-1.2-7.4-1.2-14c0-7.4,0.4-10.9,0.8-14.4c0-3.1,0.4-7.4,0.4-14s5.5-11.7,11.7-11.7c8.2,0,12.1-0.4,16.4-0.8
	c3.5-0.4,8.2-0.8,16-0.8c8.2,0,12.5,0.8,16,1.2c4.3,0.4,8.2,1.2,16.4,1.2c6.2,0,12.9,4.3,12.9,10.9c0,7.4,0,10.9-0.4,14.4v14.8
	c0,7.4,0.4,11.3,0.4,14.4c0.4,3.5,0.4,7.4,0.4,14.8S4285.5,285.6,4285.5,288.7L4285.5,288.7z"/>
<linearGradient id="SVGID_00000054958221393839957870000009928383417137663377_" gradientUnits="userSpaceOnUse" x1="4473.5439" y1="785.1416" x2="4482.814" y2="235.3216" gradientTransform="matrix(1 0 0 -1 0 968)">
	<stop  offset="0" style="stop-color:#F15A29"/>
	<stop  offset="3.000000e-02" style="stop-color:#F15C29"/>
	<stop  offset="1" style="stop-color:#FBB040"/>
</linearGradient>
<path style="fill:url(#SVGID_00000054958221393839957870000009928383417137663377_);" d="M4368.9,464.8c0.4-3.5,0.8-7.4,2-14.8
	c1.2-7.4,1.6-10.9,2.7-14.4c0.4-3.5,1.6-7.4,2.7-14.8c1.2-6.6,1.2-11.3,1.2-14.8s-0.4-7.4,1.2-14.8c1.2-6.6,1.2-10.9,2.3-14.4
	c0.4-3.5,0.8-7.4,2.3-14.8c1.2-7.4,2.3-10.9,2.7-14.4c1.2-3.5,2-7.8,3.1-14.4c1.2-7.4,1.6-11.3,2.7-14.8c0.4-3.5,1.2-7.8,2.3-14.4
	c1.2-7.4,1.2-11.7,1.2-14.8c-0.4-3.5-0.4-7.8,0.8-15.2c1.2-6.6,2-10.9,2.3-14.4s0.8-7.4,2.3-14.8c1.2-7.4,1.6-11.3,2-14.8
	c1.2-3.1,1.2-7,2.3-14.4c1.6-6.6,8.6-12.9,15.2-12.9c7.8,0,12.1,0.4,15.6,0.8s7.8,0.8,15.6,0.8s12.1-0.4,15.6-0.8s7.8-0.8,15.6-0.8
	h62.4c6.6,0,12.1,5.9,13.2,13.2c1.2,6.6,1.6,10.9,2.7,14.4c0.4,3.5,1.2,7.8,2.3,14.4c1.2,7.4,2,11.3,2.3,14.8
	c0.4,3.5,1.2,7.4,2.3,14.8c1.2,6.6,2,10.9,2.3,14.4c1.2,3.5,1.6,7.4,2.7,14.8c1.2,6.6,1.6,10.9,2.7,14.4c0.4,3.5,1.6,7.8,2.7,14.4
	c1.2,7.4,1.2,11.3,1.6,14.8c0,3.5,0.4,7.4,1.6,14.8c1.2,7.4,2.3,11.3,2.7,14.4c1.2,3.5,1.6,7.4,3.1,14.8c1.2,7.4,1.6,11.3,1.6,14.4
	c0.4,3.5,0.8,7.4,2,14.8c1.6,7.8,2,11.7,2.3,15.2c0.4,3.5,1.2,7.4,2.3,14c1.2,7.4,2,11.3,2.3,14.8c1.2,3.5,1.6,7,2.7,14.4
	s1.2,11.3,1.2,14.8s0,7.4,1.2,14.8s2.3,11.3,2.7,14.8c1.2,3.1,2,7,3.1,14.4c1.2,7.4,2,11.3,2.3,14.4c1.2,3.5,1.6,7.4,2.7,14.8
	c1.2,7.4,2,11.3,2.3,14.4c0.4,3.5,1.2,7.4,2.3,14.8c1.2,7.4,1.2,11.3,1.2,14.8s0,7.4,1.2,14.8c1.6,7.4,2,11.3,3.1,14.4
	c1.2,3.5,2,7.4,3.1,14.8c1.2,6.6,1.6,10.9,2,14.4s0.8,7.4,2,14.8c1.2,7.4,1.2,11.3,1.6,14.8c0,3.5,0,7.4,1.2,14.8
	c1.2,7.4,2.3,11.3,3.5,14.4c1.2,3.5,2,7.8,3.1,14.4c1.2,6.6-4.7,11.3-10.9,11.3s-9.4-0.4-12.5-0.4h-12.5c-5.8,0-9.4,0-12.1,1.2
	c-3.1,0.4-6.2,1.2-12.5,1.2s-9.4-0.4-12.5-0.8c-2.7,0-5.8-0.4-12.1-0.4c-6.6,0-12.1-5.1-13.6-11.7c-1.2-7.8-2-12.1-3.1-15.6
	s-2-7.8-3.1-15.2c-1.2-7.8-1.2-12.5-1.2-16s0-8.2-1.2-15.6c-1.2-7.8-2.3-11.7-3.5-15.2c-1.6-3.5-2.3-7.8-3.9-15.6
	c-1.2-7.8-1.6-12.1-1.6-15.6c-0.4-3.5-0.4-8.2-2-16c-1.2-6.2-6.6-9-12.5-5.8c-5.9,3.5-9,5.1-12.1,6.6c-2.7,1.2-5.9,3.1-11.7,6.2
	c-5.9,3.5-9,5.5-11.7,7.4c-2.7,1.6-5.5,3.9-11.3,7c-5.8,3.1-9,5.1-11.7,7c-2.7,1.6-5.8,3.5-11.7,7c-5.8,3.1-10.5,10.9-11.7,17.5
	c-1.6,9-2.3,13.6-2.7,17.9c-0.4,4.3-1.2,9-2.7,17.9c-1.2,9-2,13.6-2.3,17.9c-0.4,4.7-1.2,9-2.3,17.9c-1.6,6.6-8.6,12.1-15.2,12.1
	c-8.2,0-12.5,0-16.8-0.4h-16.8c-8.2,0-12.5,0.4-16.8,0.4c-3.5,0.4-8.2,0.8-16.4,0.8c-6.6,0-11.3-6.2-10.9-12.9
	c1.2-7.4,1.6-11.3,2.7-14.8c0.4-3.5,1.2-7.8,2.3-14.4c1.2-7.4,1.6-11.3,2-14.8s0.8-7.4,2-14.8s2-11.3,2.3-14.4
	c1.2-3.5,1.6-7.4,2.7-14.8c1.2-6.6,1.6-11.3,1.6-14.4c0.4-3.5,0.4-8.2,1.6-14.8c1.2-7.4,1.6-11.3,2.7-14.8c0.4-3.5,1.2-7.8,2.3-14.4
	c1.2-7.4,2-11.3,2.3-14.8c0-3.5,0.8-7.4,2-14.8c1.2-6.6,2-10.9,2.3-14.4c1.2-3.5,1.6-7.8,2.7-14.4c1.2-7.4,2-11.3,2.3-14.8
	s1.2-7.4,2.3-14.8c1.2-6.6,1.6-10.9,2.7-14.4c0.4-3.5,1.6-7.8,2.7-14.4c1.2-7.4,1.6-11.3,2-14.8L4368.9,464.8z M4456.2,541.2
	c4.7-2.7,7.8-4.3,9.7-5.5c2.7-1.2,5.5-2.3,10.1-5.5c4.7-2.7,6.6-4.3,9.4-5.8c2-2,4.3-3.5,9.4-6.2c5.8-3.5,9.7-10.5,8.6-17.1
	c-1.2-7.4-1.6-11.3-2-14.8s-1.2-7.4-2.3-14.8s-2-11.7-2.3-14.8c-1.2-3.5-1.6-7.4-2.7-14.8c-1.2-7.4-2-11.7-2-15.2
	c-0.4-3.5-0.8-7.4-2.3-14.8c-1.2-7.4-1.6-11.3-2.7-14.4c-1.2-3.5-1.6-7.8-2.7-15.2c-1.2-7.4-1.6-11.3-1.6-14.8
	c-0.4-3.5-0.4-7.8-2-15.2c-1.2-6.6-2.7-6.6-3.9,0c-1.2,7.8-2.3,11.7-2.7,15.2c-1.2,3.5-1.6,7.8-3.1,15.2c-1.2,7.8-1.6,11.3-2,15.6
	c0,3.5-0.8,7.8-2,15.2s-2,11.7-2.3,15.2c0,3.5-0.8,7.8-2,15.2c-1.6,7.8-2,11.7-2.3,15.2c-0.4,4.3-1.2,7.8-2.3,15.6
	c-1.2,7.4-2,11.7-2.3,15.2c-0.4,3.5-1.2,7.8-2.3,15.2c-1.2,7.8-2,11.7-2.3,15.2c0,4.3-0.8,7.8-2,15.6
	C4447.9,542.4,4450.3,544.3,4456.2,541.2L4456.2,541.2z"/>
<text transform="matrix(1 0 0 1 4265.3398 992.0234)" class="st6 st7">.com</text>
</svg>
